HIERARCHY
ROOT Root
{
  OFFSET 0.0 0.0 0.0
  CHANNELS 6 Xposition Yposition Zposition Zrotation Yrotation Xrotation
  JOINT Hips
  {
    OFFSET 0.0 100.0 0.0
    CHANNELS 6 Xposition Yposition Zposition Zrotation Yrotation Xrotation
    JOINT Spine1
    {
      OFFSET 5.003913 -0.037094 -0.013727
      CHANNELS 3 Zrotation Yrotation Xrotation
      JOINT Spine2
      {
        OFFSET 7.125363 -1e-06 0.0
        CHANNELS 3 Zrotation Yrotation Xrotation
        JOINT Chest
        {
          OFFSET 7.594027 1e-06 0.0
          CHANNELS 3 Zrotation Yrotation Xrotation
          JOINT Neck1
          {
            OFFSET 26.313086 -0.460272 -0.181672
            CHANNELS 3 Zrotation Yrotation Xrotation
            JOINT Neck2
            {
              OFFSET 8.045911 0.0 0.0
              CHANNELS 3 Zrotation Yrotation Xrotation
              JOINT Head
              {
                OFFSET 6.432774 0.0 0.0
                CHANNELS 3 Zrotation Yrotation Xrotation
                JOINT HeadEnd
                {
                  OFFSET 16.169773 0.06451 0.00362
                  CHANNELS 3 Zrotation Yrotation Xrotation
                }
                JOINT Jaw
                {
                  OFFSET 0.108741 3.12938 0.002639
                  CHANNELS 3 Zrotation Yrotation Xrotation
                }
                JOINT LeftEye
                {
                  OFFSET 4.45173 8.166359 3.206392
                  CHANNELS 3 Zrotation Yrotation Xrotation
                }
                JOINT RightEye
                {
                  OFFSET 4.436895 8.135758 -3.222429
                  CHANNELS 3 Zrotation Yrotation Xrotation
                }
              }
            }
          }
          JOINT LeftShoulder
          {
            OFFSET 23.218927 5.195579 1.621656
            CHANNELS 3 Zrotation Yrotation Xrotation
            JOINT LeftArm
            {
              OFFSET 15.902118 2e-06 -2e-06
              CHANNELS 3 Zrotation Yrotation Xrotation
              JOINT LeftForeArm
              {
                OFFSET 28.739307 0.0 -1e-06
                CHANNELS 3 Zrotation Yrotation Xrotation
                JOINT LeftHand
                {
                  OFFSET 27.093981 -4e-06 0.0
                  CHANNELS 3 Zrotation Yrotation Xrotation
                  JOINT LeftHandThumb1
                  {
                    OFFSET 2.276781 3.380274 0.83384
                    CHANNELS 3 Zrotation Yrotation Xrotation
                    JOINT LeftHandThumb2
                    {
                      OFFSET 4.705309 -1e-06 -1e-06
                      CHANNELS 3 Zrotation Yrotation Xrotation
                      JOINT LeftHandThumb3
                      {
                        OFFSET 2.798515 0.0 3e-06
                        CHANNELS 3 Zrotation Yrotation Xrotation
                        JOINT LeftHandThumbEnd
                        {
                          OFFSET 3.180793 4e-06 -4e-06
                          CHANNELS 3 Zrotation Yrotation Xrotation
                        }
                      }
                    }
                  }
                  JOINT LeftHandIndex1
                  {
                    OFFSET 3.247786 2.352677 0.137192
                    CHANNELS 3 Zrotation Yrotation Xrotation
                    JOINT LeftHandIndex2
                    {
                      OFFSET 6.367095 1e-06 0.0
                      CHANNELS 3 Zrotation Yrotation Xrotation
                      JOINT LeftHandIndex3
                      {
                        OFFSET 3.662364 0.0 0.0
                        CHANNELS 3 Zrotation Yrotation Xrotation
                        JOINT LeftHandIndex4
                        {
                          OFFSET 2.329242 4e-06 -4e-06
                          CHANNELS 3 Zrotation Yrotation Xrotation
                          JOINT LeftHandIndexEnd
                          {
                            OFFSET 2.767823 1e-06 0.0
                            CHANNELS 3 Zrotation Yrotation Xrotation
                          }
                        }
                      }
                    }
                  }
                  JOINT LeftHandMiddle1
                  {
                    OFFSET 3.163612 0.945023 -0.406112
                    CHANNELS 3 Zrotation Yrotation Xrotation
                    JOINT LeftHandMiddle2
                    {
                      OFFSET 6.276789 3e-06 0.0
                      CHANNELS 3 Zrotation Yrotation Xrotation
                      JOINT LeftHandMiddle3
                      {
                        OFFSET 4.35652 -1e-06 4e-06
                        CHANNELS 3 Zrotation Yrotation Xrotation
                        JOINT LeftHandMiddle4
                        {
                          OFFSET 2.996877 0.0 8e-06
                          CHANNELS 3 Zrotation Yrotation Xrotation
                          JOINT LeftHandMiddleEnd
                          {
                            OFFSET 2.323256 3e-06 -4e-06
                            CHANNELS 3 Zrotation Yrotation Xrotation
                          }
                        }
                      }
                    }
                  }
                  JOINT LeftHandRing1
                  {
                    OFFSET 2.882606 -0.309162 0.107445
                    CHANNELS 3 Zrotation Yrotation Xrotation
                    JOINT LeftHandRing2
                    {
                      OFFSET 6.033198 0.0 4e-06
                      CHANNELS 3 Zrotation Yrotation Xrotation
                      JOINT LeftHandRing3
                      {
                        OFFSET 4.350578 3e-06 0.0
                        CHANNELS 3 Zrotation Yrotation Xrotation
                        JOINT LeftHandRing4
                        {
                          OFFSET 2.651321 2e-06 -7e-06
                          CHANNELS 3 Zrotation Yrotation Xrotation
                          JOINT LeftHandRingEnd
                          {
                            OFFSET 1.937663 1e-06 -4e-06
                            CHANNELS 3 Zrotation Yrotation Xrotation
                          }
                        }
                      }
                    }
                  }
                  JOINT LeftHandPinky1
                  {
                    OFFSET 2.865315 -1.525436 0.575687
                    CHANNELS 3 Zrotation Yrotation Xrotation
                    JOINT LeftHandPinky2
                    {
                      OFFSET 5.54936 1e-06 -8e-06
                      CHANNELS 3 Zrotation Yrotation Xrotation
                      JOINT LeftHandPinky3
                      {
                        OFFSET 3.070974 0.0 -4e-06
                        CHANNELS 3 Zrotation Yrotation Xrotation
                        JOINT LeftHandPinky4
                        {
                          OFFSET 1.549672 1e-06 0.0
                          CHANNELS 3 Zrotation Yrotation Xrotation
                          JOINT LeftHandPinkyEnd
                          {
                            OFFSET 1.952123 0.0 0.0
                            CHANNELS 3 Zrotation Yrotation Xrotation
                          }
                        }
                      }
                    }
                  }
                }
              }
            }
          }
          JOINT RightShoulder
          {
            OFFSET 23.161716 5.296122 -1.380114
            CHANNELS 3 Zrotation Yrotation Xrotation
            JOINT RightArm
            {
              OFFSET -16.027195 -2e-06 1.1e-05
              CHANNELS 3 Zrotation Yrotation Xrotation
              JOINT RightForeArm
              {
                OFFSET -28.736639 4e-06 2e-06
                CHANNELS 3 Zrotation Yrotation Xrotation
                JOINT RightHand
                {
                  OFFSET -27.133619 6e-06 0.0
                  CHANNELS 3 Zrotation Yrotation Xrotation
                  JOINT RightHandThumb1
                  {
                    OFFSET -2.274328 -3.351035 -0.83067
                    CHANNELS 3 Zrotation Yrotation Xrotation
                    JOINT RightHandThumb2
                    {
                      OFFSET -4.703594 -3e-06 2e-06
                      CHANNELS 3 Zrotation Yrotation Xrotation
                      JOINT RightHandThumb3
                      {
                        OFFSET -2.794935 -4e-06 -3e-06
                        CHANNELS 3 Zrotation Yrotation Xrotation
                        JOINT RightHandThumbEnd
                        {
                          OFFSET -3.183852 4e-06 1e-06
                          CHANNELS 3 Zrotation Yrotation Xrotation
                        }
                      }
                    }
                  }
                  JOINT RightHandIndex1
                  {
                    OFFSET -3.253496 -2.33755 -0.127667
                    CHANNELS 3 Zrotation Yrotation Xrotation
                    JOINT RightHandIndex2
                    {
                      OFFSET -6.344434 0.0 0.0
                      CHANNELS 3 Zrotation Yrotation Xrotation
                      JOINT RightHandIndex3
                      {
                        OFFSET -3.654871 0.0 -8e-06
                        CHANNELS 3 Zrotation Yrotation Xrotation
                        JOINT RightHandIndex4
                        {
                          OFFSET -2.327586 -1e-06 0.0
                          CHANNELS 3 Zrotation Yrotation Xrotation
                          JOINT RightHandIndexEnd
                          {
                            OFFSET -2.770001 3e-06 8e-06
                            CHANNELS 3 Zrotation Yrotation Xrotation
                          }
                        }
                      }
                    }
                  }
                  JOINT RightHandMiddle1
                  {
                    OFFSET -3.168223 -0.944764 0.411762
                    CHANNELS 3 Zrotation Yrotation Xrotation
                    JOINT RightHandMiddle2
                    {
                      OFFSET -6.266691 -1e-06 -4e-06
                      CHANNELS 3 Zrotation Yrotation Xrotation
                      JOINT RightHandMiddle3
                      {
                        OFFSET -4.348901 0.0 0.0
                        CHANNELS 3 Zrotation Yrotation Xrotation
                        JOINT RightHandMiddle4
                        {
                          OFFSET -3.00024 2e-06 -4e-06
                          CHANNELS 3 Zrotation Yrotation Xrotation
                          JOINT RightHandMiddleEnd
                          {
                            OFFSET -2.321477 -4e-06 -4e-06
                            CHANNELS 3 Zrotation Yrotation Xrotation
                          }
                        }
                      }
                    }
                  }
                  JOINT RightHandRing1
                  {
                    OFFSET -2.885654 0.293261 -0.119232
                    CHANNELS 3 Zrotation Yrotation Xrotation
                    JOINT RightHandRing2
                    {
                      OFFSET -6.032835 -1e-06 -4e-06
                      CHANNELS 3 Zrotation Yrotation Xrotation
                      JOINT RightHandRing3
                      {
                        OFFSET -4.33881 0.0 -4e-06
                        CHANNELS 3 Zrotation Yrotation Xrotation
                        JOINT RightHandRing4
                        {
                          OFFSET -2.654903 -4e-06 -4e-06
                          CHANNELS 3 Zrotation Yrotation Xrotation
                          JOINT RightHandRingEnd
                          {
                            OFFSET -1.935122 0.0 4e-06
                            CHANNELS 3 Zrotation Yrotation Xrotation
                          }
                        }
                      }
                    }
                  }
                  JOINT RightHandPinky1
                  {
                    OFFSET -2.866241 1.503904 -0.60527
                    CHANNELS 3 Zrotation Yrotation Xrotation
                    JOINT RightHandPinky2
                    {
                      OFFSET -5.553177 -2e-06 0.0
                      CHANNELS 3 Zrotation Yrotation Xrotation
                      JOINT RightHandPinky3
                      {
                        OFFSET -3.062664 -1e-06 -4e-06
                        CHANNELS 3 Zrotation Yrotation Xrotation
                        JOINT RightHandPinky4
                        {
                          OFFSET -1.546529 2e-06 4e-06
                          CHANNELS 3 Zrotation Yrotation Xrotation
                          JOINT RightHandPinkyEnd
                          {
                            OFFSET -1.952341 0.0 -4e-06
                            CHANNELS 3 Zrotation Yrotation Xrotation
                          }
                        }
                      }
                    }
                  }
                }
              }
            }
          }
        }
      }
    }
    JOINT LeftLeg
    {
      OFFSET -8.443107 2.567604 10.043214
      CHANNELS 3 Zrotation Yrotation Xrotation
      JOINT LeftShin
      {
        OFFSET 43.229198 1e-06 -1e-06
        CHANNELS 3 Zrotation Yrotation Xrotation
        JOINT LeftFoot
        {
          OFFSET 42.298611 1e-06 1e-06
          CHANNELS 3 Zrotation Yrotation Xrotation
          JOINT LeftToeBase
          {
            OFFSET 14.165858 1e-06 0.0
            CHANNELS 3 Zrotation Yrotation Xrotation
            JOINT LeftToeEnd
            {
              OFFSET 6.7141 -0.234461 0.0
              CHANNELS 3 Zrotation Yrotation Xrotation
            }
          }
        }
      }
    }
    JOINT RightLeg
    {
      OFFSET -8.303923 2.592729 -10.047278
      CHANNELS 3 Zrotation Yrotation Xrotation
      JOINT RightShin
      {
        OFFSET -43.369682 0.0 1e-06
        CHANNELS 3 Zrotation Yrotation Xrotation
        JOINT RightFoot
        {
          OFFSET -42.260784 4e-06 2e-06
          CHANNELS 3 Zrotation Yrotation Xrotation
          JOINT RightToeBase
          {
            OFFSET -14.222245 -2e-06 -1e-06
            CHANNELS 3 Zrotation Yrotation Xrotation
            JOINT RightToeEnd
            {
              OFFSET -6.660062 0.232574 -2e-06
              CHANNELS 3 Zrotation Yrotation Xrotation
            }
          }
        }
      }
    }
  }
}
MOTION
Frames: 4
Frame Time: 0.03333333333333333
0.0 0.0 0.0 0.0 -0.0 0.0 0.088949 100.092758 -0.088789 89.723694 2.159233 93.067734 -1.012508 0.288199 0.412793 -11.247642 -0.156063 1.032709 15.547365 0.158877 -1.026205 22.650873 -1.034324 2.312836 -2.611264 -0.633796 1.805697 -37.665642 1.359579 -0.954184 6e-06 -0.0 -0.0 0.061132 0.017835 0.036331 0.203599 -0.047548 0.0339 0.220523 0.080967 0.0486 -114.057365 -72.874031 127.629478 53.998028 -64.031822 -75.514297 89.206619 1.140269 -0.735331 -15.663466 7.5558 -72.620598 17.636627 -26.322748 52.411217 -19.46666 -14.395596 29.410395 0.0 -8.774824 -0.0 16.531668 -18.148422 5.703599 -0.609778 -1.795655 -3.889329 -4.807088 -11.046811 -2.93785 5e-06 -20.976021 0.0 -5.019973 -25.033556 -4.03188 7e-06 -0.0 3e-06 -10.634537 -5.686973 -3.56559 10.573275 -17.922949 -3.1139 0.0 -13.821211 2e-06 -0.501778 -31.181505 -4.027017 -11.341393 -59.190037 7.179453 -13.982719 -7.1502 -2.875043 13.772735 -8.401491 -3.218243 0.347728 -34.211555 0.771658 -0.963031 -17.73337 2.621019 -1e-06 1e-06 -1e-06 -17.346424 -20.095221 -4.201785 21.757559 -1.638376 3.866429 -0.0 -6.338825 2e-06 -1.697593 -22.591747 -6.194007 1e-06 -3e-06 -2e-06 63.173233 -82.512634 131.933945 69.303612 -60.817112 -94.704742 85.242012 -0.330156 0.420534 -23.488525 21.73361 -70.022568 22.182117 -20.375895 49.933319 -16.701805 -16.743528 28.476528 -2e-06 -12.690603 -3e-06 15.620351 -17.294958 3.157562 -0.105922 -1.513856 -4.275881 -5.039042 -5.612871 -2.953557 1e-06 -11.020521 1e-06 -6.111295 -15.89533 -3.840469 -1e-06 -0.0 -2e-06 -10.283373 -5.68029 -4.341839 11.028293 -11.302404 -2.372631 -1.384274 -14.238579 -6.320119 -0.625439 -26.924185 -3.827601 -4.926754 -49.636681 -2.186723 -13.708528 -7.363478 -3.720939 18.14115 -14.052738 -3.24267 5e-06 -18.787268 -1e-06 -0.429712 -8.456041 2.555504 1e-06 0.0 0.0 -15.923539 -20.094484 -5.473583 30.419218 -7.190823 1.735929 0.0 -8.162929 0.0 -1.861904 -22.861471 -6.167942 -1e-06 -5e-06 -0.0 -177.825653 -3.19343 -9.874423 11.321398 0.017441 0.048163 -80.208244 0.326019 -2.508707 -4.473619 1.562624 2.208908 -0.999999 -0.0 -0.0 0.075608 -1.689061 -2.504806 12.245997 -0.055515 0.147629 -79.010895 -4.99279 -5.886425 -4.952886 0.643748 1.676552 -1.000003 0.0 -0.0 
0.0 0.0 0.0 0.0 -0.0 0.0 0.084949 100.089119 -0.097611 89.715248 2.165682 93.086502 -1.000196 0.299248 0.413526 -11.249536 -0.138862 1.043269 15.521694 0.153296 -1.02367 22.678053 -1.115514 2.28956 -2.600401 -0.647101 1.833818 -37.63089 1.346634 -0.973901 6e-06 0.0 0.0 0.060007 0.02183 0.049145 0.211381 -0.042937 0.045859 0.228544 0.084292 0.062556 -114.135864 -72.875938 127.645584 53.876698 -64.066254 -75.498001 89.185883 1.060094 -0.718737 -15.632741 7.468226 -72.347404 17.636629 -26.322731 52.411201 -19.466665 -14.395598 29.410395 -0.0 -8.774822 -1e-06 16.526867 -18.143696 5.71555 -0.609779 -1.795655 -3.889328 -4.807086 -11.046811 -2.93785 6e-06 -20.976021 -2e-06 -5.019972 -25.033556 -4.031882 6e-06 1e-06 2e-06 -10.634537 -5.686971 -3.565588 10.573275 -17.922953 -3.113901 3e-06 -13.821211 2e-06 -0.501773 -31.181505 -4.027021 -11.374458 -59.232029 7.207028 -13.982718 -7.1502 -2.875041 13.772733 -8.401492 -3.218243 0.347732 -34.211555 0.771654 -0.963026 -17.73337 2.621017 -1e-06 2e-06 1e-06 -17.346422 -20.095219 -4.201782 21.757557 -1.638376 3.866426 -1e-06 -6.338825 1e-06 -1.697585 -22.591742 -6.194009 -0.0 -3e-06 -4e-06 63.841759 -82.529373 131.298798 69.558624 -60.825512 -94.918594 85.260109 -0.321292 0.455016 -23.594477 21.797701 -70.128036 22.182106 -20.375893 49.933319 -16.701817 -16.74353 28.476534 -4e-06 -12.690599 1e-06 15.646767 -17.290524 3.140201 -0.105921 -1.513857 -4.275881 -5.039041 -5.61287 -2.953555 3e-06 -11.020524 -1e-06 -6.111296 -15.89533 -3.840472 0.0 -0.0 -0.0 -10.283373 -5.680288 -4.341835 11.028296 -11.302402 -2.372634 -1.384268 -14.238579 -6.32012 -0.625432 -26.924187 -3.827605 -4.91686 -49.707024 -2.209442 -13.708527 -7.363476 -3.720938 18.14115 -14.052738 -3.242676 7e-06 -18.78727 -2e-06 -0.429712 -8.456043 2.555504 1e-06 -1e-06 -1e-06 -15.923539 -20.094486 -5.473584 30.419214 -7.190824 1.735923 -0.0 -8.162927 -0.0 -1.861899 -22.861467 -6.167942 -1e-06 -2e-06 0.0 -177.864716 -3.215147 -9.813811 11.421673 0.013971 0.046091 -80.248276 0.310031 -2.513072 -4.465931 1.567172 2.207559 -0.999999 -0.0 -0.0 0.072625 -1.671194 -2.472568 12.277731 -0.05508 0.149965 -79.028206 -5.024624 -5.897444 -4.960829 0.645744 1.672613 -1.0 0.0 0.0 
0.0 0.0 0.0 0.0 -0.0 0.0 0.084988 100.087189 -0.09896 89.712654 2.159199 93.097275 -0.980731 0.312 0.401948 -11.261348 -0.123526 1.045459 15.491192 0.139253 -1.020928 22.695038 -1.182224 2.273735 -2.594249 -0.662088 1.872293 -37.637249 1.330487 -0.973332 5e-06 0.0 0.0 0.058261 0.026272 0.062826 0.212926 -0.038753 0.058552 0.230457 0.088968 0.076964 -114.162056 -72.880966 127.611145 53.718647 -64.112633 -75.39399 89.169228 1.086278 -0.639372 -15.60743 7.36526 -72.026558 17.636625 -26.322721 52.41119 -19.466665 -14.395598 29.410389 -0.0 -8.774822 -1e-06 16.477371 -18.181519 5.757944 -0.609778 -1.795654 -3.889327 -4.807087 -11.046809 -2.937851 6e-06 -20.976015 -1e-06 -5.019972 -25.033556 -4.031878 7e-06 1e-06 -1e-06 -10.634535 -5.686971 -3.565586 10.573272 -17.922949 -3.113901 3e-06 -13.821209 1e-06 -0.501774 -31.181501 -4.02702 -11.417318 -59.245403 7.25151 -13.982712 -7.150198 -2.875041 13.772729 -8.401492 -3.218244 0.347734 -34.211544 0.771653 -0.963026 -17.733368 2.621017 0.0 1e-06 0.0 -17.346416 -20.095217 -4.201782 21.757555 -1.638374 3.866426 2e-06 -6.338822 1e-06 -1.697591 -22.591742 -6.194007 3e-06 -3e-06 -2e-06 64.556496 -82.559189 130.633728 69.834045 -60.802975 -95.102486 85.2444 -0.297704 0.541647 -23.686132 21.872864 -70.178291 22.182108 -20.375883 49.9333 -16.701809 -16.743528 28.476526 -3e-06 -12.690598 -1e-06 15.655962 -17.299356 3.108923 -0.105918 -1.513856 -4.275881 -5.039042 -5.61287 -2.953556 2e-06 -11.020523 -1e-06 -6.1113 -15.89533 -3.840472 0.0 1e-06 -0.0 -10.283371 -5.680289 -4.341836 11.028294 -11.302401 -2.372634 -1.384272 -14.238577 -6.320119 -0.625436 -26.924183 -3.827604 -4.879328 -49.739124 -2.258454 -13.708525 -7.363477 -3.720936 18.14115 -14.052736 -3.242676 6e-06 -18.787266 -4e-06 -0.429711 -8.456039 2.555503 0.0 -2e-06 1e-06 -15.923541 -20.094481 -5.473581 30.41921 -7.190822 1.735924 -0.0 -8.162925 -1e-06 -1.861902 -22.861465 -6.167944 0.0 -2e-06 -1e-06 -177.892792 -3.224047 -9.748652 11.474201 0.010291 0.03856 -80.269203 0.276109 -2.513034 -4.457446 1.560663 2.203706 -1.0 0.0 -0.0 0.058239 -1.669123 -2.47942 12.304528 -0.053061 0.148383 -79.044945 -5.007606 -5.909014 -4.958941 0.649693 1.668971 -1.000001 0.0 0.0 
0.0 0.0 0.0 0.0 -0.0 0.0 0.089061 100.088516 -0.096483 89.714073 2.149625 93.084473 -0.959407 0.323423 0.379042 -11.266759 -0.118277 1.029306 15.451357 0.12207 -1.00445 22.706793 -1.237334 2.268692 -2.60221 -0.660564 1.906228 -37.643612 1.327421 -0.937746 5e-06 -0.0 -0.0 0.055731 0.027565 0.065626 0.206116 -0.037727 0.060108 0.225995 0.090424 0.08062 -114.135719 -72.872475 127.577209 53.557281 -64.138817 -75.278336 89.156784 1.18684 -0.525102 -15.552979 7.277134 -71.739449 17.636629 -26.322737 52.411201 -19.466656 -14.395591 29.410385 0.0 -8.774824 -1e-06 16.427494 -18.239231 5.794277 -0.609775 -1.795653 -3.889328 -4.807089 -11.046811 -2.937852 5e-06 -20.976019 0.0 -5.019973 -25.033558 -4.03188 7e-06 0.0 1e-06 -10.634531 -5.686971 -3.565588 10.573277 -17.922951 -3.113901 3e-06 -13.821211 0.0 -0.501774 -31.181505 -4.027018 -11.450043 -59.242466 7.290702 -13.982714 -7.150198 -2.875041 13.772733 -8.401493 -3.218242 0.347735 -34.211555 0.771655 -0.963027 -17.73337 2.621017 -1e-06 1e-06 -1e-06 -17.34642 -20.095217 -4.201781 21.757559 -1.638375 3.866427 1e-06 -6.338824 2e-06 -1.697586 -22.591743 -6.194007 -1e-06 -3e-06 -2e-06 65.053322 -82.602036 130.163818 70.061462 -60.791233 -95.259293 85.213219 -0.327967 0.603406 -23.740536 21.948135 -70.090149 22.182121 -20.375898 49.933304 -16.701807 -16.743525 28.476519 -4e-06 -12.690598 -3e-06 15.654487 -17.322664 3.070331 -0.10592 -1.513856 -4.27588 -5.039042 -5.61287 -2.953555 6e-06 -11.020523 0.0 -6.111295 -15.89533 -3.840469 -0.0 -1e-06 -1e-06 -10.283373 -5.680288 -4.341838 11.028294 -11.302406 -2.372631 -1.38427 -14.238579 -6.32012 -0.625441 -26.924183 -3.827599 -4.827348 -49.714729 -2.314771 -13.708529 -7.363475 -3.720939 18.141146 -14.052739 -3.24267 9e-06 -18.787266 -0.0 -0.42971 -8.456042 2.555505 3e-06 -0.0 -1e-06 -15.923532 -20.094482 -5.473584 30.419205 -7.190827 1.735929 2e-06 -8.162927 0.0 -1.861899 -22.861469 -6.167938 2e-06 -5e-06 -1e-06 -177.87851 -3.220877 -9.712067 11.448656 0.006028 0.032557 -80.259636 0.227265 -2.535458 -4.455487 1.543858 2.199826 -0.999998 1e-06 0.0 0.053377 -1.671878 -2.485342 12.29609 -0.053823 0.143348 -79.044594 -4.961967 -5.917185 -4.941038 0.648997 1.665255 -1.000002 0.0 0.0 
